<svg xmlns="http://www.w3.org/2000/svg" viewBox="0 0 240 220"><rect width="240" height="220" rx="38" fill="#f1ecff"/><path d="M70 168c-12-17-14-37-8-52l17-38c3-7 13-6 14 2l-1 31 8-58c1-9 13-9 14 0l-2 58 8-67c1-9 14-8 14 1l-2 70 9-54c2-9 14-7 14 2l-5 72c-2 25-19 42-43 43-14 1-27-3-36-10Z" fill="#8d72d8" stroke="#315d4a" stroke-width="7" stroke-linejoin="round"/><path d="M166 91c8-6 17 0 14 10l-10 28" fill="none" stroke="#315d4a" stroke-width="7" stroke-linecap="round"/><path d="M54 178h132" stroke="#315d4a" stroke-width="7" stroke-linecap="round"/></svg>