<svg xmlns="http://www.w3.org/2000/svg" viewBox="0 0 180 170"><path d="M40 105h100a31 31 0 0 0 0-62 46 46 0 0 0-87 17 29 29 0 0 0-13 45z" fill="#AFCBE3" stroke="#6688A5" stroke-width="6"/><circle cx="88" cy="72" r="5"/><circle cx="116" cy="72" r="5"/><path d="M91 86q10 9 20 0" fill="none" stroke="#39464F" stroke-width="4" stroke-linecap="round"/><g fill="#4A9DDD"><path d="M55 126q8 13 0 21-8-8 0-21z"/><path d="M82 126q8 13 0 21-8-8 0-21z"/><path d="M109 126q8 13 0 21-8-8 0-21z"/><path d="M136 126q8 13 0 21-8-8 0-21z"/></g></svg>